<svg width="46" height="35" viewBox="0 0 46 35" fill="none" xmlns="http://www.w3.org/2000/svg">
<mask id="path-1-inside-1_716_1732" fill="white">
<path fill-rule="evenodd" clip-rule="evenodd" d="M43.2678 10.6784V22.9606C44.5244 24.2375 45.2946 25.9805 45.2946 27.906C45.2946 31.8177 42.1126 34.9997 38.2009 34.9997C34.2892 34.9997 31.1072 31.8177 31.1072 27.906C31.1072 27.6476 31.1414 27.3891 31.1756 27.1307C31.187 27.0446 31.1984 26.9585 31.2085 26.8723H20.7504C20.6288 27.4398 20.4666 28.0073 20.2639 28.5343L18.4398 27.7236L18.0142 28.6559L19.8181 29.4666C18.7751 31.5557 17.0322 33.2126 14.893 34.1484L14.1836 32.2635L13.231 32.6284L13.9201 34.4727C12.9473 34.7767 11.9136 34.9997 10.8394 34.9997C9.54231 34.9997 8.28571 34.7362 7.17098 34.2903L7.98169 32.4662L7.04937 32.0406L6.23866 33.8444C4.14956 32.8015 2.49268 31.0586 1.55681 28.9194L3.44171 28.21L3.07689 27.2574L1.23253 27.9465C0.928512 26.9737 0.705566 25.94 0.705566 24.8658C0.705566 23.5687 0.969047 22.3121 1.41494 21.1973L3.23904 22.0081L3.66466 21.0757L1.86083 20.265C2.90374 18.1759 4.64669 16.519 6.78589 15.5832L7.49526 17.4681L8.44785 17.1033L7.75874 15.2589C8.7316 14.9549 9.76525 14.7319 10.8394 14.7319C12.1366 14.7319 13.3932 14.9954 14.5079 15.4413L13.6972 17.2654L14.6295 17.691L15.4402 15.8872C15.9266 16.1507 16.3928 16.4344 16.8387 16.7587H20.9733C23.2028 16.7587 25.0269 14.9346 25.0269 12.7052V8.06384L22.8785 5.91546L20.0207 8.77321L18.5817 7.3342L25.7362 0.179688L27.1753 1.6187L24.3175 4.47645L26.4659 6.62483H39.2143C41.4437 6.62483 43.2678 8.44893 43.2678 10.6784ZM4.75912 24.8658C4.75912 28.2303 7.475 30.9461 10.8394 30.9461C14.2039 30.9461 16.9198 28.2303 16.9198 24.8658C16.9198 21.5014 14.2039 18.7855 10.8394 18.7855C7.475 18.7855 4.75912 21.5014 4.75912 24.8658ZM20.4464 21.7851C20.5477 22.1297 20.6288 22.4742 20.7098 22.839H33.2556C34.5324 21.5824 36.2755 20.8123 38.2009 20.8123C38.4685 20.8123 38.7361 20.8489 38.9942 20.8843C39.0684 20.8945 39.1419 20.9045 39.2143 20.9136V10.6784H29.0804V12.7052C29.0804 17.1843 25.4525 20.8123 20.9733 20.8123H20.1221L18.2372 21.5216L18.602 22.4742L20.4464 21.7851ZM35.1607 27.906C35.1607 29.5882 36.5187 30.9461 38.2009 30.9461C39.8831 30.9461 41.2411 29.5882 41.2411 27.906C41.2411 26.2238 39.8831 24.8658 38.2009 24.8658C36.5187 24.8658 35.1607 26.2238 35.1607 27.906ZM16.9198 12.7053H6.78589C5.67117 12.7053 4.75912 11.7932 4.75912 10.6785C4.75912 9.56377 5.67117 8.65172 6.78589 8.65172H12.8662C15.0957 8.65172 16.9198 10.4758 16.9198 12.7053Z"/>
</mask>
<path fill-rule="evenodd" clip-rule="evenodd" d="M43.2678 10.6784V22.9606C44.5244 24.2375 45.2946 25.9805 45.2946 27.906C45.2946 31.8177 42.1126 34.9997 38.2009 34.9997C34.2892 34.9997 31.1072 31.8177 31.1072 27.906C31.1072 27.6476 31.1414 27.3891 31.1756 27.1307C31.187 27.0446 31.1984 26.9585 31.2085 26.8723H20.7504C20.6288 27.4398 20.4666 28.0073 20.2639 28.5343L18.4398 27.7236L18.0142 28.6559L19.8181 29.4666C18.7751 31.5557 17.0322 33.2126 14.893 34.1484L14.1836 32.2635L13.231 32.6284L13.9201 34.4727C12.9473 34.7767 11.9136 34.9997 10.8394 34.9997C9.54231 34.9997 8.28571 34.7362 7.17098 34.2903L7.98169 32.4662L7.04937 32.0406L6.23866 33.8444C4.14956 32.8015 2.49268 31.0586 1.55681 28.9194L3.44171 28.21L3.07689 27.2574L1.23253 27.9465C0.928512 26.9737 0.705566 25.94 0.705566 24.8658C0.705566 23.5687 0.969047 22.3121 1.41494 21.1973L3.23904 22.0081L3.66466 21.0757L1.86083 20.265C2.90374 18.1759 4.64669 16.519 6.78589 15.5832L7.49526 17.4681L8.44785 17.1033L7.75874 15.2589C8.7316 14.9549 9.76525 14.7319 10.8394 14.7319C12.1366 14.7319 13.3932 14.9954 14.5079 15.4413L13.6972 17.2654L14.6295 17.691L15.4402 15.8872C15.9266 16.1507 16.3928 16.4344 16.8387 16.7587H20.9733C23.2028 16.7587 25.0269 14.9346 25.0269 12.7052V8.06384L22.8785 5.91546L20.0207 8.77321L18.5817 7.3342L25.7362 0.179688L27.1753 1.6187L24.3175 4.47645L26.4659 6.62483H39.2143C41.4437 6.62483 43.2678 8.44893 43.2678 10.6784ZM4.75912 24.8658C4.75912 28.2303 7.475 30.9461 10.8394 30.9461C14.2039 30.9461 16.9198 28.2303 16.9198 24.8658C16.9198 21.5014 14.2039 18.7855 10.8394 18.7855C7.475 18.7855 4.75912 21.5014 4.75912 24.8658ZM20.4464 21.7851C20.5477 22.1297 20.6288 22.4742 20.7098 22.839H33.2556C34.5324 21.5824 36.2755 20.8123 38.2009 20.8123C38.4685 20.8123 38.7361 20.8489 38.9942 20.8843C39.0684 20.8945 39.1419 20.9045 39.2143 20.9136V10.6784H29.0804V12.7052C29.0804 17.1843 25.4525 20.8123 20.9733 20.8123H20.1221L18.2372 21.5216L18.602 22.4742L20.4464 21.7851ZM35.1607 27.906C35.1607 29.5882 36.5187 30.9461 38.2009 30.9461C39.8831 30.9461 41.2411 29.5882 41.2411 27.906C41.2411 26.2238 39.8831 24.8658 38.2009 24.8658C36.5187 24.8658 35.1607 26.2238 35.1607 27.906ZM16.9198 12.7053H6.78589C5.67117 12.7053 4.75912 11.7932 4.75912 10.6785C4.75912 9.56377 5.67117 8.65172 6.78589 8.65172H12.8662C15.0957 8.65172 16.9198 10.4758 16.9198 12.7053Z" fill="#014898"/>
<path d="M43.2678 22.9606H42.9678V23.0835L43.054 23.1711L43.2678 22.9606ZM31.1756 27.1307L31.473 27.1701V27.1701L31.1756 27.1307ZM31.2085 26.8723L31.5065 26.9074L31.5459 26.5723H31.2085V26.8723ZM20.7504 26.8723V26.5723H20.5078L20.457 26.8095L20.7504 26.8723ZM20.2639 28.5343L20.1421 28.8084L20.4306 28.9366L20.5439 28.642L20.2639 28.5343ZM18.4398 27.7236L18.5617 27.4494L18.2903 27.3288L18.1669 27.599L18.4398 27.7236ZM18.0142 28.6559L17.7413 28.5313L17.616 28.8058L17.8912 28.9295L18.0142 28.6559ZM19.8181 29.4666L20.0865 29.6006L20.226 29.321L19.941 29.193L19.8181 29.4666ZM14.893 34.1484L14.6122 34.2541L14.7236 34.55L15.0132 34.4233L14.893 34.1484ZM14.1836 32.2635L14.4644 32.1579L14.3581 31.8755L14.0763 31.9834L14.1836 32.2635ZM13.231 32.6284L13.1237 32.3482L12.8459 32.4546L12.95 32.7334L13.231 32.6284ZM13.9201 34.4727L14.0096 34.7591L14.3121 34.6646L14.2012 34.3677L13.9201 34.4727ZM7.17098 34.2903L6.89684 34.1685L6.77031 34.4532L7.05956 34.5689L7.17098 34.2903ZM7.98169 32.4662L8.25583 32.5881L8.37646 32.3167L8.10628 32.1933L7.98169 32.4662ZM7.04937 32.0406L7.17396 31.7677L6.89945 31.6424L6.77574 31.9176L7.04937 32.0406ZM6.23866 33.8444L6.10467 34.1128L6.38421 34.2524L6.5123 33.9674L6.23866 33.8444ZM1.55681 28.9194L1.45114 28.6386L1.15524 28.7499L1.28196 29.0396L1.55681 28.9194ZM3.44171 28.21L3.54738 28.4908L3.82979 28.3845L3.72187 28.1027L3.44171 28.21ZM3.07689 27.2574L3.35705 27.1501L3.25063 26.8722L2.97189 26.9764L3.07689 27.2574ZM1.23253 27.9465L0.946184 28.036L1.0407 28.3384L1.33753 28.2275L1.23253 27.9465ZM1.41494 21.1973L1.53678 20.9232L1.2521 20.7967L1.13639 21.0859L1.41494 21.1973ZM3.23904 22.0081L3.11719 22.2822L3.3886 22.4028L3.51194 22.1326L3.23904 22.0081ZM3.66466 21.0757L3.93756 21.2003L4.06289 20.9258L3.78764 20.8021L3.66466 21.0757ZM1.86083 20.265L1.59242 20.131L1.45286 20.4106L1.73785 20.5387L1.86083 20.265ZM6.78589 15.5832L7.06667 15.4775L6.95531 15.1816L6.66565 15.3083L6.78589 15.5832ZM7.49526 17.4681L7.21449 17.5737L7.32077 17.8562L7.60256 17.7482L7.49526 17.4681ZM8.44785 17.1033L8.55514 17.3834L8.83302 17.277L8.72887 16.9983L8.44785 17.1033ZM7.75874 15.2589L7.66926 14.9726L7.36682 15.0671L7.47772 15.3639L7.75874 15.2589ZM14.5079 15.4413L14.782 15.5631L14.9086 15.2785L14.6193 15.1628L14.5079 15.4413ZM13.6972 17.2654L13.4231 17.1436L13.3024 17.415L13.5726 17.5383L13.6972 17.2654ZM14.6295 17.691L14.5049 17.9639L14.7794 18.0893L14.9031 17.814L14.6295 17.691ZM15.4402 15.8872L15.5831 15.6234L15.299 15.4695L15.1666 15.7642L15.4402 15.8872ZM16.8387 16.7587L16.6622 17.0013L16.7411 17.0587H16.8387V16.7587ZM25.0269 8.06384H25.3269V7.93958L25.239 7.85171L25.0269 8.06384ZM22.8785 5.91546L23.0906 5.70333L22.8785 5.4912L22.6664 5.70333L22.8785 5.91546ZM20.0207 8.77321L19.8086 8.98535L20.0207 9.19748L20.2329 8.98535L20.0207 8.77321ZM18.5817 7.3342L18.3696 7.12207L18.1575 7.3342L18.3696 7.54634L18.5817 7.3342ZM25.7362 0.179688L25.9484 -0.0324445L25.7362 -0.244577L25.5241 -0.0324446L25.7362 0.179688ZM27.1753 1.6187L27.3874 1.83083L27.5995 1.6187L27.3874 1.40657L27.1753 1.6187ZM24.3175 4.47645L24.1054 4.26432L23.8932 4.47645L24.1054 4.68858L24.3175 4.47645ZM26.4659 6.62483L26.2537 6.83697L26.3416 6.92483H26.4659V6.62483ZM20.7098 22.839L20.417 22.9041L20.4692 23.139H20.7098V22.839ZM20.4464 21.7851L20.7342 21.7005L20.6432 21.3913L20.3414 21.5041L20.4464 21.7851ZM33.2556 22.839V23.139H33.3784L33.466 23.0529L33.2556 22.839ZM38.9942 20.8843L39.0349 20.5871L38.9942 20.8843ZM39.2143 20.9136L39.1771 21.2113L39.5143 21.2534V20.9136H39.2143ZM39.2143 10.6784H39.5143V10.3784H39.2143V10.6784ZM29.0804 10.6784V10.3784H28.7804V10.6784H29.0804ZM20.1221 20.8123V20.5123H20.0675L20.0164 20.5315L20.1221 20.8123ZM18.2372 21.5216L18.1315 21.2409L17.8491 21.3471L17.957 21.6289L18.2372 21.5216ZM18.602 22.4742L18.3218 22.5815L18.4283 22.8594L18.707 22.7552L18.602 22.4742ZM16.9198 12.7053V13.0053H17.2198V12.7053H16.9198ZM43.5678 22.9606V10.6784H42.9678V22.9606H43.5678ZM45.5946 27.906C45.5946 25.8986 44.7912 24.0809 43.4817 22.7502L43.054 23.1711C44.2577 24.3941 44.9946 26.0624 44.9946 27.906H45.5946ZM38.2009 35.2997C42.2783 35.2997 45.5946 31.9833 45.5946 27.906H44.9946C44.9946 31.652 41.9469 34.6997 38.2009 34.6997V35.2997ZM30.8072 27.906C30.8072 31.9833 34.1235 35.2997 38.2009 35.2997V34.6997C34.4549 34.6997 31.4072 31.652 31.4072 27.906H30.8072ZM30.8782 27.0914C30.8444 27.3464 30.8072 27.6245 30.8072 27.906H31.4072C31.4072 27.6707 31.4383 27.4319 31.473 27.1701L30.8782 27.0914ZM30.9106 26.8373C30.9007 26.9209 30.8896 27.0049 30.8782 27.0914L31.473 27.1701C31.4844 27.0843 31.496 26.996 31.5065 26.9074L30.9106 26.8373ZM20.7504 27.1723H31.2085V26.5723H20.7504V27.1723ZM20.5439 28.642C20.7531 28.0983 20.9194 27.5155 21.0437 26.9352L20.457 26.8095C20.3382 27.3641 20.1802 27.9164 19.9839 28.4266L20.5439 28.642ZM18.318 27.9977L20.1421 28.8084L20.3858 28.2601L18.5617 27.4494L18.318 27.9977ZM18.2871 28.7805L18.7128 27.8482L18.1669 27.599L17.7413 28.5313L18.2871 28.7805ZM19.941 29.193L18.1372 28.3822L17.8912 28.9295L19.6951 29.7402L19.941 29.193ZM15.0132 34.4233C17.2168 33.4593 19.0122 31.7525 20.0865 29.6006L19.5496 29.3326C18.5381 31.3589 16.8476 32.9659 14.7727 33.8736L15.0132 34.4233ZM13.9028 32.3692L14.6122 34.2541L15.1738 34.0428L14.4644 32.1579L13.9028 32.3692ZM13.3383 32.9085L14.2909 32.5437L14.0763 31.9834L13.1237 32.3482L13.3383 32.9085ZM14.2012 34.3677L13.5121 32.5234L12.95 32.7334L13.6391 34.5777L14.2012 34.3677ZM10.8394 35.2997C11.9545 35.2997 13.02 35.0683 14.0096 34.7591L13.8307 34.1864C12.8746 34.4852 11.8727 34.6997 10.8394 34.6997V35.2997ZM7.05956 34.5689C8.2079 35.0282 9.50222 35.2997 10.8394 35.2997V34.6997C9.58239 34.6997 8.36351 34.4442 7.2824 34.0118L7.05956 34.5689ZM7.70755 32.3444L6.89684 34.1685L7.44512 34.4122L8.25583 32.5881L7.70755 32.3444ZM6.92479 32.3135L7.8571 32.7391L8.10628 32.1933L7.17396 31.7677L6.92479 32.3135ZM6.5123 33.9674L7.32301 32.1636L6.77574 31.9176L5.96503 33.7214L6.5123 33.9674ZM1.28196 29.0396C2.24598 31.2432 3.95271 33.0386 6.10467 34.1128L6.37266 33.576C4.3464 32.5645 2.73937 30.874 1.83166 28.7991L1.28196 29.0396ZM3.33604 27.9292L1.45114 28.6386L1.66248 29.2001L3.54738 28.4908L3.33604 27.9292ZM2.79674 27.3647L3.16156 28.3173L3.72187 28.1027L3.35705 27.1501L2.79674 27.3647ZM1.33753 28.2275L3.18189 27.5384L2.97189 26.9764L1.12753 27.6655L1.33753 28.2275ZM0.405566 24.8658C0.405566 25.9809 0.636926 27.0464 0.946184 28.036L1.51887 27.857C1.2201 26.901 1.00557 25.8991 1.00557 24.8658H0.405566ZM1.13639 21.0859C0.67706 22.2343 0.405566 23.5286 0.405566 24.8658H1.00557C1.00557 23.6088 1.26103 22.3899 1.69348 21.3088L1.13639 21.0859ZM3.36088 21.7339L1.53678 20.9232L1.2931 21.4715L3.11719 22.2822L3.36088 21.7339ZM3.39175 20.9512L2.96613 21.8835L3.51194 22.1326L3.93756 21.2003L3.39175 20.9512ZM1.73785 20.5387L3.54168 21.3494L3.78764 20.8021L1.98381 19.9914L1.73785 20.5387ZM6.66565 15.3083C4.46209 16.2724 2.6667 17.9791 1.59242 20.131L2.12924 20.399C3.14077 18.3728 4.83129 16.7657 6.90613 15.858L6.66565 15.3083ZM7.77604 17.3624L7.06667 15.4775L6.50512 15.6888L7.21449 17.5737L7.77604 17.3624ZM8.34055 16.8231L7.38797 17.1879L7.60256 17.7482L8.55514 17.3834L8.34055 16.8231ZM7.47772 15.3639L8.16682 17.2083L8.72887 16.9983L8.03977 15.1539L7.47772 15.3639ZM10.8394 14.4319C9.72434 14.4319 8.65889 14.6633 7.66926 14.9726L7.84823 15.5452C8.80431 15.2465 9.80616 15.0319 10.8394 15.0319V14.4319ZM14.6193 15.1628C13.471 14.7034 12.1767 14.4319 10.8394 14.4319V15.0319C12.0965 15.0319 13.3154 15.2874 14.3965 15.7199L14.6193 15.1628ZM13.9713 17.3872L14.782 15.5631L14.2338 15.3195L13.4231 17.1436L13.9713 17.3872ZM14.7541 17.4181L13.8218 16.9925L13.5726 17.5383L14.5049 17.9639L14.7541 17.4181ZM15.1666 15.7642L14.3559 17.568L14.9031 17.814L15.7139 16.0102L15.1666 15.7642ZM17.0151 16.5161C16.5561 16.1823 16.0782 15.8916 15.5831 15.6234L15.2973 16.151C15.7751 16.4098 16.2295 16.6866 16.6622 17.0013L17.0151 16.5161ZM20.9733 16.4587H16.8387V17.0587H20.9733V16.4587ZM24.7269 12.7052C24.7269 14.7689 23.0371 16.4587 20.9733 16.4587V17.0587C23.3685 17.0587 25.3269 15.1003 25.3269 12.7052H24.7269ZM24.7269 8.06384V12.7052H25.3269V8.06384H24.7269ZM22.6664 6.12759L24.8147 8.27598L25.239 7.85171L23.0906 5.70333L22.6664 6.12759ZM20.2329 8.98535L23.0906 6.12759L22.6664 5.70333L19.8086 8.56108L20.2329 8.98535ZM18.3696 7.54634L19.8086 8.98535L20.2329 8.56108L18.7939 7.12207L18.3696 7.54634ZM25.5241 -0.0324446L18.3696 7.12207L18.7939 7.54634L25.9484 0.39182L25.5241 -0.0324446ZM27.3874 1.40657L25.9484 -0.0324445L25.5241 0.39182L26.9631 1.83083L27.3874 1.40657ZM24.5296 4.68858L27.3874 1.83083L26.9631 1.40657L24.1054 4.26432L24.5296 4.68858ZM26.678 6.4127L24.5296 4.26432L24.1054 4.68858L26.2537 6.83697L26.678 6.4127ZM39.2143 6.32483H26.4659V6.92483H39.2143V6.32483ZM43.5678 10.6784C43.5678 8.28325 41.6094 6.32483 39.2143 6.32483V6.92483C41.2781 6.92483 42.9678 8.61462 42.9678 10.6784H43.5678ZM10.8394 30.6461C7.64068 30.6461 5.05912 28.0646 5.05912 24.8658H4.45912C4.45912 28.3959 7.30931 31.2461 10.8394 31.2461V30.6461ZM16.6198 24.8658C16.6198 28.0646 14.0382 30.6461 10.8394 30.6461V31.2461C14.3696 31.2461 17.2198 28.3959 17.2198 24.8658H16.6198ZM10.8394 19.0855C14.0382 19.0855 16.6198 21.6671 16.6198 24.8658H17.2198C17.2198 21.3357 14.3696 18.4855 10.8394 18.4855V19.0855ZM5.05912 24.8658C5.05912 21.6671 7.64068 19.0855 10.8394 19.0855V18.4855C7.30931 18.4855 4.45912 21.3357 4.45912 24.8658H5.05912ZM21.0027 22.774C20.9212 22.4075 20.8384 22.055 20.7342 21.7005L20.1585 21.8698C20.257 22.2044 20.3363 22.541 20.417 22.9041L21.0027 22.774ZM33.2556 22.539H20.7098V23.139H33.2556V22.539ZM38.2009 20.5123C36.1936 20.5123 34.3758 21.3156 33.0451 22.6252L33.466 23.0529C34.689 21.8492 36.3574 21.1123 38.2009 21.1123V20.5123ZM39.0349 20.5871C38.7802 20.5522 38.4924 20.5123 38.2009 20.5123V21.1123C38.4446 21.1123 38.692 21.1457 38.9534 21.1815L39.0349 20.5871ZM39.2515 20.6159C39.1811 20.6071 39.1095 20.5973 39.0349 20.5871L38.9534 21.1815C39.0274 21.1917 39.1026 21.202 39.1771 21.2113L39.2515 20.6159ZM38.9143 10.6784V20.9136H39.5143V10.6784H38.9143ZM29.0804 10.9784H39.2143V10.3784H29.0804V10.9784ZM29.3804 12.7052V10.6784H28.7804V12.7052H29.3804ZM20.9733 21.1123C25.6182 21.1123 29.3804 17.35 29.3804 12.7052H28.7804C28.7804 17.0186 25.2868 20.5123 20.9733 20.5123V21.1123ZM20.1221 21.1123H20.9733V20.5123H20.1221V21.1123ZM18.3428 21.8024L20.2277 21.093L20.0164 20.5315L18.1315 21.2409L18.3428 21.8024ZM18.8821 22.3669L18.5173 21.4143L17.957 21.6289L18.3218 22.5815L18.8821 22.3669ZM20.3414 21.5041L18.497 22.1932L18.707 22.7552L20.5514 22.0661L20.3414 21.5041ZM38.2009 30.6461C36.6844 30.6461 35.4607 29.4225 35.4607 27.906H34.8607C34.8607 29.7539 36.353 31.2461 38.2009 31.2461V30.6461ZM40.9411 27.906C40.9411 29.4225 39.7174 30.6461 38.2009 30.6461V31.2461C40.0488 31.2461 41.5411 29.7539 41.5411 27.906H40.9411ZM38.2009 25.1658C39.7174 25.1658 40.9411 26.3894 40.9411 27.906H41.5411C41.5411 26.0581 40.0488 24.5658 38.2009 24.5658V25.1658ZM35.4607 27.906C35.4607 26.3894 36.6844 25.1658 38.2009 25.1658V24.5658C36.353 24.5658 34.8607 26.0581 34.8607 27.906H35.4607ZM6.78589 13.0053H16.9198V12.4053H6.78589V13.0053ZM4.45912 10.6785C4.45912 11.9589 5.50548 13.0053 6.78589 13.0053V12.4053C5.83685 12.4053 5.05912 11.6275 5.05912 10.6785H4.45912ZM6.78589 8.35172C5.50548 8.35172 4.45912 9.39808 4.45912 10.6785H5.05912C5.05912 9.72945 5.83685 8.95172 6.78589 8.95172V8.35172ZM12.8662 8.35172H6.78589V8.95172H12.8662V8.35172ZM17.2198 12.7053C17.2198 10.3101 15.2614 8.35172 12.8662 8.35172V8.95172C14.93 8.95172 16.6198 10.6415 16.6198 12.7053H17.2198Z" fill="white" mask="url(#path-1-inside-1_716_1732)"/>
</svg>
