<svg width="284" height="560" viewBox="0 0 284 560" fill="none" xmlns="http://www.w3.org/2000/svg">
<g opacity="0.1">
<path d="M273.573 0.245117H265.526V9.94482H273.573V0.245117Z" fill="white"/>
<path d="M244.07 0.245117H236.023V9.94482H244.07V0.245117Z" fill="white"/>
<path d="M214.567 0.245117H206.521V9.94482H214.567V0.245117Z" fill="white"/>
<path d="M185.064 0.245117H177.018V9.94482H185.064V0.245117Z" fill="white"/>
<path d="M156.902 0.245117H148.855V9.94482H156.902V0.245117Z" fill="white"/>
<path d="M126.058 0.245117H118.012V9.94482H126.058V0.245117Z" fill="white"/>
<path d="M96.5551 0.245117H88.5088V9.94482H96.5551V0.245117Z" fill="white"/>
<path d="M67.0521 0.245117H59.0059V9.94482H67.0521V0.245117Z" fill="white"/>
<path d="M37.5492 0.245117H29.5029V9.94482H37.5492V0.245117Z" fill="white"/>
<path d="M8.04626 0.245117H0V9.94482H8.04626V0.245117Z" fill="white"/>
<path d="M273.573 144.127H265.526V153.827H273.573V144.127Z" fill="white"/>
<path d="M244.07 144.127H236.023V153.827H244.07V144.127Z" fill="white"/>
<path d="M214.567 144.127H206.521V153.827H214.567V144.127Z" fill="white"/>
<path d="M185.064 144.127H177.018V153.827H185.064V144.127Z" fill="white"/>
<path d="M156.902 144.127H148.855V153.827H156.902V144.127Z" fill="white"/>
<path d="M126.058 144.127H118.012V153.827H126.058V144.127Z" fill="white"/>
<path d="M96.5551 144.127H88.5088V153.827H96.5551V144.127Z" fill="white"/>
<path d="M67.0521 144.127H59.0059V153.827H67.0521V144.127Z" fill="white"/>
<path d="M37.5492 144.127H29.5029V153.827H37.5492V144.127Z" fill="white"/>
<path d="M8.04626 144.127H0V153.827H8.04626V144.127Z" fill="white"/>
<path d="M273.573 289.625H265.526V297.708H273.573V289.625Z" fill="white"/>
<path d="M244.07 289.625H236.023V297.708H244.07V289.625Z" fill="white"/>
<path d="M214.567 289.625H206.521V297.708H214.567V289.625Z" fill="white"/>
<path d="M185.064 289.625H177.018V297.708H185.064V289.625Z" fill="white"/>
<path d="M156.902 289.625H148.855V297.708H156.902V289.625Z" fill="white"/>
<path d="M126.058 289.625H118.012V297.708H126.058V289.625Z" fill="white"/>
<path d="M96.5551 289.625H88.5088V297.708H96.5551V289.625Z" fill="white"/>
<path d="M67.0521 289.625H59.0059V297.708H67.0521V289.625Z" fill="white"/>
<path d="M37.5492 289.625H29.5029V297.708H37.5492V289.625Z" fill="white"/>
<path d="M8.04626 289.625H0V297.708H8.04626V289.625Z" fill="white"/>
<path d="M273.573 435.125H265.526V443.208H273.573V435.125Z" fill="white"/>
<path d="M244.07 435.125H236.023V443.208H244.07V435.125Z" fill="white"/>
<path d="M214.567 435.125H206.521V443.208H214.567V435.125Z" fill="white"/>
<path d="M185.064 435.125H177.018V443.208H185.064V435.125Z" fill="white"/>
<path d="M156.902 435.125H148.855V443.208H156.902V435.125Z" fill="white"/>
<path d="M126.058 435.125H118.012V443.208H126.058V435.125Z" fill="white"/>
<path d="M96.5551 435.125H88.5088V443.208H96.5551V435.125Z" fill="white"/>
<path d="M67.0521 435.125H59.0059V443.208H67.0521V435.125Z" fill="white"/>
<path d="M37.5492 435.125H29.5029V443.208H37.5492V435.125Z" fill="white"/>
<path d="M8.04626 435.125H0V443.208H8.04626V435.125Z" fill="white"/>
<path d="M273.573 29.3447H265.526V37.4277H273.573V29.3447Z" fill="white"/>
<path d="M244.07 29.3447H236.023V37.4277H244.07V29.3447Z" fill="white"/>
<path d="M214.567 29.3447H206.521V37.4277H214.567V29.3447Z" fill="white"/>
<path d="M185.064 29.3447H177.018V37.4277H185.064V29.3447Z" fill="white"/>
<path d="M156.902 29.3447H148.855V37.4277H156.902V29.3447Z" fill="white"/>
<path d="M126.058 29.3447H118.012V37.4277H126.058V29.3447Z" fill="white"/>
<path d="M96.5551 29.3447H88.5088V37.4277H96.5551V29.3447Z" fill="white"/>
<path d="M67.0521 29.3447H59.0059V37.4277H67.0521V29.3447Z" fill="white"/>
<path d="M37.5492 29.3447H29.5029V37.4277H37.5492V29.3447Z" fill="white"/>
<path d="M8.04626 29.3447H0V37.4272H8.04626V29.3447Z" fill="white"/>
<path d="M273.573 174.844H265.526V182.927H273.573V174.844Z" fill="white"/>
<path d="M244.07 174.844H236.023V182.927H244.07V174.844Z" fill="white"/>
<path d="M214.567 174.844H206.521V182.927H214.567V174.844Z" fill="white"/>
<path d="M185.064 174.844H177.018V182.927H185.064V174.844Z" fill="white"/>
<path d="M156.902 174.844H148.855V182.927H156.902V174.844Z" fill="white"/>
<path d="M126.058 174.844H118.012V182.927H126.058V174.844Z" fill="white"/>
<path d="M96.5551 174.844H88.5088V182.927H96.5551V174.844Z" fill="white"/>
<path d="M67.0521 174.844H59.0059V182.927H67.0521V174.844Z" fill="white"/>
<path d="M37.5492 174.844H29.5029V182.927H37.5492V174.844Z" fill="white"/>
<path d="M8.04626 174.845H0V182.928H8.04626V174.845Z" fill="white"/>
<path d="M273.573 318.726H265.526V328.425H273.573V318.726Z" fill="white"/>
<path d="M244.07 318.726H236.023V328.425H244.07V318.726Z" fill="white"/>
<path d="M214.567 318.726H206.521V328.425H214.567V318.726Z" fill="white"/>
<path d="M185.064 318.726H177.018V328.425H185.064V318.726Z" fill="white"/>
<path d="M156.902 318.726H148.855V328.425H156.902V318.726Z" fill="white"/>
<path d="M126.058 318.726H118.012V328.425H126.058V318.726Z" fill="white"/>
<path d="M96.5551 318.726H88.5088V328.425H96.5551V318.726Z" fill="white"/>
<path d="M67.0521 318.726H59.0059V328.425H67.0521V318.726Z" fill="white"/>
<path d="M37.5492 318.726H29.5029V328.425H37.5492V318.726Z" fill="white"/>
<path d="M8.04626 318.726H0V328.425H8.04626V318.726Z" fill="white"/>
<path d="M273.573 462.607H265.526V472.308H273.573V462.607Z" fill="white"/>
<path d="M244.07 462.607H236.023V472.308H244.07V462.607Z" fill="white"/>
<path d="M214.567 462.607H206.521V472.308H214.567V462.607Z" fill="white"/>
<path d="M185.064 462.607H177.018V472.308H185.064V462.607Z" fill="white"/>
<path d="M156.902 462.607H148.855V472.308H156.902V462.607Z" fill="white"/>
<path d="M126.058 462.607H118.012V472.308H126.058V462.607Z" fill="white"/>
<path d="M96.5551 462.607H88.5088V472.308H96.5551V462.607Z" fill="white"/>
<path d="M67.0521 462.607H59.0059V472.308H67.0521V462.607Z" fill="white"/>
<path d="M37.5492 462.607H29.5029V472.308H37.5492V462.607Z" fill="white"/>
<path d="M8.04626 462.607H0V472.308H8.04626V462.607Z" fill="white"/>
<path d="M273.573 58.4443H265.526V68.144H273.573V58.4443Z" fill="white"/>
<path d="M244.07 58.4443H236.023V68.144H244.07V58.4443Z" fill="white"/>
<path d="M214.567 58.4443H206.521V68.144H214.567V58.4443Z" fill="white"/>
<path d="M185.064 58.4443H177.018V68.144H185.064V58.4443Z" fill="white"/>
<path d="M156.902 58.4443H148.855V68.144H156.902V58.4443Z" fill="white"/>
<path d="M126.058 58.4443H118.012V68.144H126.058V58.4443Z" fill="white"/>
<path d="M96.5551 58.4443H88.5088V68.144H96.5551V58.4443Z" fill="white"/>
<path d="M67.0521 58.4443H59.0059V68.144H67.0521V58.4443Z" fill="white"/>
<path d="M37.5492 58.4443H29.5029V68.144H37.5492V58.4443Z" fill="white"/>
<path d="M8.04626 58.4443H0V68.144H8.04626V58.4443Z" fill="white"/>
<path d="M273.573 203.942H265.526V212.025H273.573V203.942Z" fill="white"/>
<path d="M244.07 203.942H236.023V212.025H244.07V203.942Z" fill="white"/>
<path d="M214.567 203.942H206.521V212.025H214.567V203.942Z" fill="white"/>
<path d="M185.064 203.942H177.018V212.025H185.064V203.942Z" fill="white"/>
<path d="M156.902 203.942H148.855V212.025H156.902V203.942Z" fill="white"/>
<path d="M126.058 203.942H118.012V212.025H126.058V203.942Z" fill="white"/>
<path d="M96.5551 203.942H88.5088V212.025H96.5551V203.942Z" fill="white"/>
<path d="M67.0521 203.942H59.0059V212.025H67.0521V203.942Z" fill="white"/>
<path d="M37.5492 203.942H29.5029V212.025H37.5492V203.942Z" fill="white"/>
<path d="M8.04626 203.941H0V212.025H8.04626V203.941Z" fill="white"/>
<path d="M273.573 347.825H265.526V355.908H273.573V347.825Z" fill="white"/>
<path d="M244.07 347.825H236.023V355.908H244.07V347.825Z" fill="white"/>
<path d="M214.567 347.825H206.521V355.908H214.567V347.825Z" fill="white"/>
<path d="M185.064 347.825H177.018V355.908H185.064V347.825Z" fill="white"/>
<path d="M156.902 347.825H148.855V355.908H156.902V347.825Z" fill="white"/>
<path d="M126.058 347.825H118.012V355.908H126.058V347.825Z" fill="white"/>
<path d="M96.5551 347.825H88.5088V355.908H96.5551V347.825Z" fill="white"/>
<path d="M67.0521 347.825H59.0059V355.908H67.0521V347.825Z" fill="white"/>
<path d="M37.5492 347.825H29.5029V355.908H37.5492V347.825Z" fill="white"/>
<path d="M8.04626 347.826H0V355.909H8.04626V347.826Z" fill="white"/>
<path d="M273.572 491.705H265.525V501.405H273.572V491.705Z" fill="white"/>
<path d="M244.07 491.705H236.023V501.405H244.07V491.705Z" fill="white"/>
<path d="M214.566 491.705H206.52V501.405H214.566V491.705Z" fill="white"/>
<path d="M185.064 491.705H177.018V501.405H185.064V491.705Z" fill="white"/>
<path d="M156.902 491.705H148.855V501.405H156.902V491.705Z" fill="white"/>
<path d="M126.058 491.705H118.012V501.405H126.058V491.705Z" fill="white"/>
<path d="M96.5541 491.705H88.5078V501.405H96.5541V491.705Z" fill="white"/>
<path d="M67.0521 491.705H59.0059V501.405H67.0521V491.705Z" fill="white"/>
<path d="M37.5502 491.705H29.5039V501.405H37.5502V491.705Z" fill="white"/>
<path d="M8.04626 491.706H0V501.406H8.04626V491.706Z" fill="white"/>
<path d="M273.572 87.543H265.525V97.2422H273.572V87.543Z" fill="white"/>
<path d="M244.07 87.543H236.023V97.2422H244.07V87.543Z" fill="white"/>
<path d="M214.566 87.543H206.52V97.2422H214.566V87.543Z" fill="white"/>
<path d="M185.064 87.543H177.018V97.2422H185.064V87.543Z" fill="white"/>
<path d="M156.902 87.543H148.855V97.2422H156.902V87.543Z" fill="white"/>
<path d="M126.058 87.543H118.012V97.2422H126.058V87.543Z" fill="white"/>
<path d="M96.5541 87.543H88.5078V97.2422H96.5541V87.543Z" fill="white"/>
<path d="M67.0521 87.543H59.0059V97.2422H67.0521V87.543Z" fill="white"/>
<path d="M37.5502 87.543H29.5039V97.2422H37.5502V87.543Z" fill="white"/>
<path d="M8.04626 87.5439H0V97.2432H8.04626V87.5439Z" fill="white"/>
<path d="M273.573 231.426H265.526V241.126H273.573V231.426Z" fill="white"/>
<path d="M244.07 231.426H236.023V241.126H244.07V231.426Z" fill="white"/>
<path d="M214.567 231.426H206.521V241.126H214.567V231.426Z" fill="white"/>
<path d="M185.064 231.426H177.018V241.126H185.064V231.426Z" fill="white"/>
<path d="M156.902 231.426H148.855V241.126H156.902V231.426Z" fill="white"/>
<path d="M126.058 231.426H118.012V241.126H126.058V231.426Z" fill="white"/>
<path d="M96.5551 231.426H88.5088V241.126H96.5551V231.426Z" fill="white"/>
<path d="M67.0521 231.426H59.0059V241.126H67.0521V231.426Z" fill="white"/>
<path d="M37.5492 231.426H29.5029V241.126H37.5492V231.426Z" fill="white"/>
<path d="M8.04626 231.426H0V241.125H8.04626V231.426Z" fill="white"/>
<path d="M273.573 376.925H265.526V385.008H273.573V376.925Z" fill="white"/>
<path d="M244.07 376.925H236.023V385.008H244.07V376.925Z" fill="white"/>
<path d="M214.567 376.925H206.521V385.008H214.567V376.925Z" fill="white"/>
<path d="M185.064 376.925H177.018V385.008H185.064V376.925Z" fill="white"/>
<path d="M156.902 376.925H148.855V385.008H156.902V376.925Z" fill="white"/>
<path d="M126.058 376.925H118.012V385.008H126.058V376.925Z" fill="white"/>
<path d="M96.5551 376.925H88.5088V385.008H96.5551V376.925Z" fill="white"/>
<path d="M67.0521 376.925H59.0059V385.008H67.0521V376.925Z" fill="white"/>
<path d="M37.5492 376.925H29.5029V385.008H37.5492V376.925Z" fill="white"/>
<path d="M8.04626 376.925H0V385.008H8.04626V376.925Z" fill="white"/>
<path d="M273.573 522.424H265.526V530.507H273.573V522.424Z" fill="white"/>
<path d="M244.07 522.424H236.023V530.507H244.07V522.424Z" fill="white"/>
<path d="M214.567 522.424H206.521V530.507H214.567V522.424Z" fill="white"/>
<path d="M185.064 522.424H177.018V530.507H185.064V522.424Z" fill="white"/>
<path d="M156.902 522.424H148.855V530.507H156.902V522.424Z" fill="white"/>
<path d="M126.058 522.424H118.012V530.507H126.058V522.424Z" fill="white"/>
<path d="M96.5551 522.424H88.5088V530.507H96.5551V522.424Z" fill="white"/>
<path d="M67.0521 522.424H59.0059V530.507H67.0521V522.424Z" fill="white"/>
<path d="M37.5492 522.424H29.5029V530.507H37.5492V522.424Z" fill="white"/>
<path d="M8.04626 522.424H0V530.507H8.04626V522.424Z" fill="white"/>
<path d="M273.573 116.644H265.526V124.727H273.573V116.644Z" fill="white"/>
<path d="M244.07 116.644H236.023V124.727H244.07V116.644Z" fill="white"/>
<path d="M214.567 116.644H206.521V124.727H214.567V116.644Z" fill="white"/>
<path d="M185.064 116.644H177.018V124.727H185.064V116.644Z" fill="white"/>
<path d="M156.902 116.644H148.855V124.727H156.902V116.644Z" fill="white"/>
<path d="M126.058 116.644H118.012V124.727H126.058V116.644Z" fill="white"/>
<path d="M96.5551 116.644H88.5088V124.727H96.5551V116.644Z" fill="white"/>
<path d="M67.0521 116.644H59.0059V124.727H67.0521V116.644Z" fill="white"/>
<path d="M37.5492 116.644H29.5029V124.727H37.5492V116.644Z" fill="white"/>
<path d="M8.04626 116.644H0V124.727H8.04626V116.644Z" fill="white"/>
<path d="M273.573 262.143H265.526V270.226H273.573V262.143Z" fill="white"/>
<path d="M244.07 262.143H236.023V270.226H244.07V262.143Z" fill="white"/>
<path d="M214.567 262.143H206.521V270.226H214.567V262.143Z" fill="white"/>
<path d="M185.064 262.143H177.018V270.226H185.064V262.143Z" fill="white"/>
<path d="M156.902 262.143H148.855V270.226H156.902V262.143Z" fill="white"/>
<path d="M126.058 262.143H118.012V270.226H126.058V262.143Z" fill="white"/>
<path d="M96.5551 262.143H88.5088V270.226H96.5551V262.143Z" fill="white"/>
<path d="M67.0521 262.143H59.0059V270.226H67.0521V262.143Z" fill="white"/>
<path d="M37.5492 262.143H29.5029V270.226H37.5492V262.143Z" fill="white"/>
<path d="M8.04626 262.143H0V270.226H8.04626V262.143Z" fill="white"/>
<path d="M273.573 406.024H265.526V415.725H273.573V406.024Z" fill="white"/>
<path d="M244.07 406.024H236.023V415.725H244.07V406.024Z" fill="white"/>
<path d="M214.567 406.024H206.521V415.725H214.567V406.024Z" fill="white"/>
<path d="M185.064 406.024H177.018V415.725H185.064V406.024Z" fill="white"/>
<path d="M156.902 406.024H148.855V415.725H156.902V406.024Z" fill="white"/>
<path d="M126.058 406.024H118.012V415.725H126.058V406.024Z" fill="white"/>
<path d="M96.5551 406.024H88.5088V415.725H96.5551V406.024Z" fill="white"/>
<path d="M67.0521 406.024H59.0059V415.725H67.0521V406.024Z" fill="white"/>
<path d="M37.5492 406.024H29.5029V415.725H37.5492V406.024Z" fill="white"/>
<path d="M8.04626 406.024H0V415.725H8.04626V406.024Z" fill="white"/>
<path d="M273.573 549.906H265.526V559.606H273.573V549.906Z" fill="white"/>
<path d="M244.07 549.906H236.023V559.606H244.07V549.906Z" fill="white"/>
<path d="M214.567 549.906H206.521V559.606H214.567V549.906Z" fill="white"/>
<path d="M185.064 549.906H177.018V559.606H185.064V549.906Z" fill="white"/>
<path d="M156.902 549.906H148.855V559.606H156.902V549.906Z" fill="white"/>
<path d="M126.058 549.906H118.012V559.606H126.058V549.906Z" fill="white"/>
<path d="M96.5551 549.906H88.5088V559.606H96.5551V549.906Z" fill="white"/>
<path d="M67.0521 549.906H59.0059V559.606H67.0521V549.906Z" fill="white"/>
<path d="M37.5492 549.906H29.5029V559.606H37.5492V549.906Z" fill="white"/>
<path d="M8.04626 549.906H0V559.606H8.04626V549.906Z" fill="white"/>
</g>
</svg>
