<svg width="32" height="34" viewBox="0 0 32 34" fill="none" xmlns="http://www.w3.org/2000/svg">
<path d="M0 0V34H14.6667V28.7692H17.3333V34H32V0H0ZM2.66667 2.61538H29.3333V31.3846H20V26.1538H12V31.3846H2.66667V2.61538ZM5.33333 5.23077V7.84615H10.6667V5.23077H5.33333ZM13.3333 5.23077V7.84615H18.6667V5.23077H13.3333ZM21.3333 5.23077V7.84615H26.6667V5.23077H21.3333ZM5.33333 10.4615V13.0769H10.6667V10.4615H5.33333ZM13.3333 10.4615V13.0769H18.6667V10.4615H13.3333ZM21.3333 10.4615V13.0769H26.6667V10.4615H21.3333ZM5.33333 15.6923V18.3077H10.6667V15.6923H5.33333ZM13.3333 15.6923V18.3077H18.6667V15.6923H13.3333ZM21.3333 15.6923V18.3077H26.6667V15.6923H21.3333ZM5.33333 20.9231V23.5385H10.6667V20.9231H5.33333ZM13.3333 20.9231V23.5385H18.6667V20.9231H13.3333ZM21.3333 20.9231V23.5385H26.6667V20.9231H21.3333ZM5.33333 26.1538V28.7692H10.6667V26.1538H5.33333ZM21.3333 26.1538V28.7692H26.6667V26.1538H21.3333Z" fill="#014898"/>
</svg>
