<svg width="45" height="41" viewBox="0 0 45 41" fill="none" xmlns="http://www.w3.org/2000/svg">
<path d="M4.15796 38.842C6.63306 30.1673 8.43706 21.5206 8.47375 12.9473H21.4211C21.4578 21.5206 23.2618 30.1673 25.7369 38.842" stroke="#014898" stroke-width="3" stroke-linecap="round" stroke-linejoin="round"/>
<path d="M22.5 21.5791H32.2105C32.2645 27.2155 34.1397 33.0073 36.5263 38.8423" stroke="#014898" stroke-width="3" stroke-linecap="round" stroke-linejoin="round"/>
<path d="M14.9473 4.31626C15.4375 3.6333 16.0866 3.07994 16.8385 2.70398C17.5904 2.32802 18.4226 2.14076 19.2631 2.15836C20.1035 2.14076 20.9357 2.32802 21.6876 2.70398C22.4395 3.07994 23.0886 3.6333 23.5788 4.31626C24.0691 4.99921 24.7182 5.55257 25.4701 5.92853C26.222 6.30449 27.0541 6.49176 27.8946 6.47415C28.7351 6.49176 29.5673 6.30449 30.3192 5.92853C31.0711 5.55257 31.7202 4.99921 32.2104 4.31626C32.7006 3.6333 33.3497 3.07994 34.1017 2.70398C34.8536 2.32802 35.6857 2.14076 36.5262 2.15836C37.3667 2.14076 38.1988 2.32802 38.9508 2.70398C39.7027 3.07994 40.3518 3.6333 40.842 4.31626" stroke="#014898" stroke-width="3" stroke-linecap="round" stroke-linejoin="round"/>
<path d="M2 38.8428H43" stroke="#014898" stroke-width="3" stroke-linecap="round" stroke-linejoin="round"/>
</svg>
